<svg width="448" height="512" xmlns="http://www.w3.org/2000/svg">
 <!--! Font Awesome Pro 6.4.2 by @fontawesome - https://fontawesome.com License - https://fontawesome.com/license (Commercial License) Copyright 2023 Fonticons, Inc. -->

 <g>
  <title>background</title>
  <rect fill="none" id="canvas_background" height="402" width="582" y="-1" x="-1"/>
 </g>
 <g>
  <title>Layer 1</title>
  <path fill="#ff314f" id="svg_1" d="m128,0c13.3,0 24,10.7 24,24l0,40l144,0l0,-40c0,-13.3 10.7,-24 24,-24s24,10.7 24,24l0,40l40,0c35.3,0 64,28.7 64,64l0,16l0,48l0,256c0,35.3 -28.7,64 -64,64l-320,0c-35.3,0 -64,-28.7 -64,-64l0,-256l0,-48l0,-16c0,-35.3 28.7,-64 64,-64l40,0l0,-40c0,-13.3 10.7,-24 24,-24zm272,192l-352,0l0,256c0,8.8 7.2,16 16,16l320,0c8.8,0 16,-7.2 16,-16l0,-256zm-288,64l96,0c8.8,0 16,7.2 16,16l0,96c0,8.8 -7.2,16 -16,16l-96,0c-8.8,0 -16,-7.2 -16,-16l0,-96c0,-8.8 7.2,-16 16,-16z"/>
 </g>
</svg>