<svg width="512" height="512" xmlns="http://www.w3.org/2000/svg">
 <!--! Font Awesome Pro 6.4.2 by @fontawesome - https://fontawesome.com License - https://fontawesome.com/license (Commercial License) Copyright 2023 Fonticons, Inc. -->

 <g>
  <title>background</title>
  <rect fill="none" id="canvas_background" height="402" width="582" y="-1" x="-1"/>
 </g>
 <g>
  <title>Layer 1</title>
  <path id="svg_1" d="m256,96c-13.3,0 -24,10.7 -24,24l0,136c0,8 4,15.5 10.7,20l96,64c11,7.4 25.9,4.4 33.3,-6.7s4.4,-25.9 -6.7,-33.3l-85.3,-56.8l0,-123.2c0,-13.3 -10.7,-24 -24,-24z" class="fa-primary"/>
  <path fill="#00ff00" opacity="0.4" id="svg_2" d="m256,0a256,256 0 1 1 0,512a256,256 0 1 1 0,-512zm-24,120l0,136c0,8 4,15.5 10.7,20l96,64c11,7.4 25.9,4.4 33.3,-6.7s4.4,-25.9 -6.7,-33.3l-85.3,-56.8l0,-123.2c0,-13.3 -10.7,-24 -24,-24s-24,10.7 -24,24z" class="fa-secondary"/>
 </g>
</svg>