<svg width="512" height="512" xmlns="http://www.w3.org/2000/svg">
 <!--! Font Awesome Pro 6.4.2 by @fontawesome - https://fontawesome.com License - https://fontawesome.com/license (Commercial License) Copyright 2023 Fonticons, Inc. -->

 <g>
  <title>background</title>
  <rect fill="none" id="canvas_background" height="402" width="582" y="-1" x="-1"/>
 </g>
 <g>
  <title>Layer 1</title>
  <path fill="#00ff00" id="svg_1" d="m327.5,86.161545c-4.5,1.7 -7.5,6 -7.5,10.8s3,9.1 7.5,10.8l56.5,21.2l21.2,56.5c1.7,4.5 6,7.5 10.8,7.5s9.1,-3 10.8,-7.5l21.2,-56.5l56.5,-21.2c4.5,-1.7 7.5,-6 7.5,-10.8s-3,-9.1 -7.5,-10.8l-56.5,-21.2l-21.2,-56.5c-1.7,-4.5 -6,-7.5 -10.8,-7.5s-9.1,3 -10.8,7.5l-21.2,56.5l-28.25,10.6c-9.41667,3.53333 -18.83333,7.06667 -28.25,10.6zm-122.4,-11.9c-2.6,-5.7 -8.3,-9.3 -14.5,-9.3s-11.9,3.6 -14.5,9.3l-52.8,114l-114,52.7c-5.7,2.6 -9.3,8.3 -9.3,14.6s3.6,11.9 9.3,14.5l114.1,52.7l52.6,114c2.6,5.7 8.3,9.3 14.5,9.3s11.9,-3.6 14.5,-9.3l52.7,-114.1l114.1,-52.7c5.7,-2.6 9.3,-8.3 9.3,-14.5s-3.6,-11.9 -9.3,-14.5l-114,-52.6l-52.7,-114.1zm178.9,310.7l-56.5,21.2c-4.5,1.7 -7.5,6 -7.5,10.8s3,9.1 7.5,10.8l56.5,21.2l21.2,56.5c1.7,4.5 6,7.5 10.8,7.5s9.1,-3 10.8,-7.5l21.2,-56.5l56.5,-21.2c4.5,-1.7 7.5,-6 7.5,-10.8s-3,-9.1 -7.5,-10.8l-56.5,-21.2l-21.2,-56.5c-1.7,-4.5 -6,-7.5 -10.8,-7.5s-9.1,3 -10.8,7.5l-21.2,56.5z"/>
  <path d="m-1.853416,1.932676c0.961542,0 2.072178,-0.566837 6.730791,0.961542c15.123254,4.961575 46.068292,17.490813 83.654111,37.500119c53.276207,28.362293 95.627419,58.193264 123.077324,86.538738c14.221283,14.685272 55.054977,85.125732 77.884872,116.346527c21.455109,29.340729 47.397644,60.350037 72.115601,91.346466c17.509064,21.956421 33.353088,36.891846 40.384766,45.192444c5.346466,6.31131 9.690979,12.440552 13.461578,17.307739c5.888672,7.601257 13.56897,19.825592 21.1539,29.8078c7.826477,10.30011 19.146942,20.32019 27.884705,25.961609c7.62085,4.920288 12.573242,7.324371 13.461578,7.692322c1.256317,0.520386 2.506195,2.441101 3.846161,4.807709c1.953339,3.449951 2.682587,6.806213 3.846191,9.615417c0.822784,1.98642 3.067596,4.693787 4.807709,7.692352c1.079163,1.859589 1.923065,3.846161 1.923065,3.846161c0.961548,0.961548 1.034729,1.555115 1.923096,1.923096c2.512604,1.040741 3.846161,2.884613 6.730774,5.769226c1.923096,1.923096 3.846191,2.884644 6.730804,5.769257c1.923065,1.923096 4.807678,4.807709 7.692322,6.730804c0,0 -0.961548,0 -1.923096,0c-1.923065,0 -1.923065,-0.961548 -2.884613,-0.961548l0,0" id="svg_7" stroke-opacity="null" stroke-width="null" stroke="null" fill="none"/>
 </g>
</svg>